/* XPM */
static char *fd8fbb0ab0c5489c83cb2c446691c3cdFQa5vwa1lXhz5ZIN[] = {
/* columns rows colors chars-per-pixel */
"128 128 30 1 ",
"  c #0F0000",
". c #00000F",
"X c #1F0000",
"o c #2F0000",
"O c #3F0000",
"+ c #17300F",
"@ c #4F0000",
"# c #550000",
"$ c #5F0000",
"% c #650B00",
"& c #6D1200",
"* c #7E2000",
"= c #732B00",
"- c #1E4014",
"; c #265019",
": c #2D601E",
"> c #357023",
", c #862700",
"< c #8E2E00",
"1 c #A43D00",
"2 c #B14500",
"3 c #CB5500",
"4 c #D85D00",
"5 c #E56500",
"6 c #F36D00",
"7 c #3C8028",
"8 c #43902D",
"9 c #52B037",
"0 c #5AC03C",
"q c #FF8619",
/* pixels */
"99999999999000099999000009999999999999900000099999999000999999999999999999900009999900000999999999999990000009999999900099999999",
"99999999999000099999000009999999999999900000099999990000999999999999999999900009999900000999999999999990000009999999000099999999",
"99999999999000999999000009999999999999000000009999900000999999999999999999900099999900000999999999999900000000999990000099999999",
"99999999999000999999000009999999999999000000009999900000999999999999999999900099999900000999999999999900000000999990000099999999",
"99999999999000999999000009999999999999000000009999900000999999999999999999900099999900000999999999999900000000999990000099999999",
"99999999999000999999000009999999999999000000009999000000999999999999999999900099999900000999999999999900000000999900000099999999",
"99999999999000999999000009999999999999000000009999000000999999999999999999900099999900000999999999999900000000999900000099999999",
"99999999999000999999000009999999999999000000009999000000999999999999999999900099999900000999999999999900000000999900000099999999",
"99999999990000099999000009999999999999000000009999000000999999999999999999000009999900000999999999999900000000999900000099999999",
"99999999990000099999000009999999999999000000000999000000999999999999999999000009999900000999999999999900000000099900000099999999",
"88888888880000099999000008888888888888000000000999000000888888888888888888000009999900000888888888888800000000099900000088888888",
"88888888800000099999000008888888888888000000000099000000888888888888888880000009999900000888888888888800000000009900000088888888",
"88888888800000099999000008888888888888800000000099000000888888888888888880000009999900000888888888888880000000009900000088888888",
"88888888800000099999000008888888888888800000000000000008888888888888888880000009999900000888888888888880000000000000000888888888",
"88888888800000099999000088888888888888800000000000000008888888888888888880000009999900008888888888888880000000000000000888888888",
"8888888800000009999900008888--88888888880000000000000008888888888888888800000009999900008888--8888888888000000000000000888888888",
"8888888800000009999000008888--88888888880000000000000008888888888888888800000009999000008888--8888888888000000000000000888888888",
"8888888800000000999000008888---8888888880000000000000088888888888888888800000000999000008888---888888888000000000000008888888888",
"8888888800000000090000008888---8888888880000000000000088888888888888888800000000090000008888---888888888000000000000008888888888",
"888888880000000000000008888----888888888800000000000008888888888888888880000000000000008888----888888888800000000000008888888888",
"777777770000000000000007777----77777777777000000000000777777-777777777770000000000000007777----77777777777000000000000777777-777",
"777777770000000000000007777----7777777777770000000000077777---77777777770000000000000007777----7777777777770000000000077777---77",
"777777770000000000000007777----7777777777777000000000077777---77777777770000000000000007777----7777777777777000000000077777---77",
"77777777000000000000000777------777777777777000000000077777---7777777777000000000000000777------777777777777000000000077777---77",
"77-77777000000000000007777------777777777777700000000777777--77777-77777000000000000007777------777777777777700000000777777--777",
"7---7777770000000000007777------77777777777770000000077777----777---7777770000000000007777------77777777777770000000077777----77",
"7---777777700000000000777---------777777777777000000777777----777---777777700000000000777---------777777777777000000777777----77",
"7---777777700000000000777---------777777777777000000777777----777---777777700000000000777---------777777777777000000777777----77",
"7---777777700000000000777----------77777777777700007777777----777---777777700000000000777----------77777777777700007777777----77",
"-----77777770000000000777-----------777777777777000777777-----77-----77777770000000000777-----------777777777777000777777-----77",
"-----77777770000000000777-----------777777777777000777777------7-----77777770000000000777-----------777777777777000777777------7",
"-----77777770000000007777-----------777777777777007777777------------77777770000000007777-----------777777777777007777777-------",
"-----77777777000007707777------------77777777777707777777------------77777777000007707777------------77777777777707777777-------",
"-----7777777700007777777-------------77777777777707777777------------7777777700007777777-------------77777777777707777777-------",
"----->>>>>>>>>000>>>>>>>------------->>>>>>>>>>>>>>>>>>>------------->>>>>>>>>000>>>>>>>------------->>>>>>>>>>>>>>>>>>>--------",
"------>>>>>>>>00>>>>>>>>-------------->>>>>>>>>>>>>>>>>>-------------->>>>>>>>00>>>>>>>>-------------->>>>>>>>>>>>>>>>>>--------",
"------>>>>>>>>0>>>>>>>>--------------->>>>>>>>>>>>>>>>>>-------------->>>>>>>>0>>>>>>>>--------------->>>>>>>>>>>>>>>>>>--------",
"------->>>>>>>0>>>>>>>>---------------->>>>>>>>>>>>>>>>>--------------->>>>>>>0>>>>>>>>---------------->>>>>>>>>>>>>>>>>--------",
"+++++++::::::::::::::::++++++++++++++++::::::::::::::::++++++++++++++++::::::::::::::::++++++++++++++++::::::::::::::::+++++++++",
"+++++++::::::::::::::::++++++++++++++++::::::::::::::::++++++++++++++++::::::::::::::::++++++++++++++++::::::::::::::::+++++++++",
"+++++++::::::::::::::::++++++++++++++++::::::::::::::::++++++++++++++++::::::::::::::::++++++++++++++++::::::::::::::::+++++++++",
"++++++++::::::::::::::::++++++++++++++++::::::::::::::::++++++++++++++++::::::::::::::::++++++++++++++++::::::::::::::::++++++++",
"++++++++::::::::::::::::++++++++++++++++:::::::::::::::+++++++++++++++++::::::::::::::::++++++++++++++++:::::::::::::::+++++++++",
"++++++++::::::::::::::::++++++++++++++++:::::::::::::::+++++++++++++++++::::::::::::::::++++++++++++++++:::::::::::::::+++++++++",
"++++++++:::::::::::::::::++++++++++++++++:::::::::::::++++++++++++++++++:::::::::::::::::++++++++++++++++:::::::::::::++++++++++",
"++++++++:::::::::::::::::+++++++++++++++::::::::::::::++++++++++++++++++:::::::::::::::::+++++++++++++++::::::::::::::++++++++++",
"++++++++::::::::::::::::++++++++++++++++:::::::::::::::+++++++++++++++++::::::::::::::::++++++++++++++++:::::::::::::::+++++++++",
"++++++<+::::::::::::::::++++*+++++++++++:::::::::::::::+++++++++++++++<+::::::::::::::::++++*+++++++++++:::::::::::::::+++++++++",
"++++++<+::::::::::::::::++++*+++++++++++::::::::::::::::++++++++++++++<+::::::::::::::::++++*+++++++++++::::::::::::::::++++++++",
"++++++<<::::::::::::::::++++*++@++++++++::::::::::::::::++++++++++++++<<::::::::::::::::++++*++@++++++++::::::::::::::::++++++++",
"+++++<<;;;;;;;,,;;;;;;;;;+++*++@++o+++++;;;;;;;;;;;;;X;;;++++++++++++<<;;;;;;;,,;;;;;;;;;+++*++@++o+++++;;;;;;;;;;;;;X;;;+++++++",
"++++<<<<;;;;;;,,;;;;;;;;++++*&@@+Ooo++++;;;;;;;;;;;;XX;;;+++++++++++<<<<;;;;;;,,;;;;;;;;++++*&@@+Ooo++++;;;;;;;;;;;;XX;;;+++++++",
"++++<<<<;;;;;,,,;;;;;;;;++++*&@@OOoo++++;;;;;XXX;;;XX;;;++++++++++++<<<<;;;;;,,,;;;;;;;;++++*&@@OOoo++++;;;;;XXX;;;XX;;;++++++++",
"+++++<<<<;;;,,,;;;;;;;;;++++*&@@OOoo+++;;;;;XXXX;;;XXX;X+++++++++++++<<<<;;;,,,;;;;;;;;;++++*&@@OOoo+++;;;;;XXXX;;;XXX;X++++++++",
"++++<<<<<;;;,,,;;;;;;;;++++++&@@OOoo+++;;;;XXXXX;;;XXXXX++++++++++++<<<<<;;;,,,;;;;;;;;++++++&@@OOoo+++;;;;XXXXX;;;XXXXX++++++++",
"++++<<<<;;;;,,,;;;;;;;;++++++&@@OOoo+++;+;;XXXXX;;;;XXXX++++++++++++<<<<;;;;,,,;;;;;;;;++++++&@@OOoo+++;+;;XXXXX;;;;XXXX++++++++",
"++<+<<<,;;;;,,,,;;;;;;;++++++&@@OOoo+++++;;XXXXX;;;;XXX+++++++++++<+<<<,;;;;,,,,;;;;;;;++++++&@@OOoo+++++;;XXXXX;;;;XXX+++++++++",
"+1<<<<,,;;;;,,,,;;*;;;;+++++&&@@OOo+++++X;XXXXXXX;;;;XXX+++++++++1<<<<,,;;;;,,,,;;*;;;;+++++&&@@OOo+++++X;XXXXXXX;;;;XXX++++++++",
"+1<<<,,,,;;,,,,,,;*;;;;;++++&&@@OOo+o+++XXXXXXXXX;;;XXX++++++++++1<<<,,,,;;,,,,,,;*;;;;;++++&&@@OOo+o+++XXXXXXXXX;;;XXX+++++++++",
"++<<,,,,;;;,,,,,*;**;;;;++++&&@@OOo+o++XXXXXXXXXX;;XXXX+++++++++++<<,,,,;;;,,,,,*;**;;;;++++&&@@OOo+o++XXXXXXXXXX;;XXXX+++++++++",
"++<,,,,,;;,,,,,**;**;;;;++++&&@@XXooX++XXXXXXXXXX;XXXXXX++++++++++<,,,,,;;,,,,,**;**;;;;++++&&@@XXooX++XXXXXXXXXX;XXXXXX++++++++",
"$+$,,,,,;,,,,,&&&&&&;;&;+++&&&@@XXXXXX++XXXXXXX ;;      ++++  .+$+$,,,,,;,,,,,&&&&&&;;&;+++&&&@@XXXXXX++XXXXXXX ;;      ++++  .+",
"$+$$@@@@@@@@@@@@@@@@@@@@++@@@@@@XXXX..++.........;.......++.....$+$$@@@@@@@@@@@@@@@@@@@@++@@@@@@XXXX..++.........;.......++.....",
"$$$$@@@@@@@@@@@@@@@@@@@@+++@@@@@XXXX...+.................++++...$$$$@@@@@@@@@@@@@@@@@@@@+++@@@@@XXXX...+.................++++...",
"OOOOOOOOOOOOOOOOOOOOOOOOO++OXXXX1111111+11111111111111111+++$$$$OOOOOOOOOOOOOOOOOOOOOOOOO++OXXXX1111111+11111111111111111+++$$$$",
"OO+OOOOOOOOOOOOOOOOOOOOOOOOOXXXX1111111111111111111111111111$$$$OO+OOOOOOOOOOOOOOOOOOOOOOOOOXXXX1111111111111111111111111111$$$$",
"OOOOOOOOOOoooooooooooooooooooXXX11<<<<<<<<<<<<<<<<<<<<<<<<<<<$$$OOOOOOOOOOoooooooooooooooooooXXX11<<<<<<<<<<<<<<<<<<<<<<<<<<<$$$",
"OOOOOOOOOooooooooooooooooooooXXX11<<<<<<<<<<<<<<<<<<<<<<<<<<,,$$OOOOOOOOOooooooooooooooooooooXXX11<<<<<<<<<<<<<<<<<<<<<<<<<<,,$$",
"OOOOOOOOooooooooooooooooooooXX..11<<<<<<<<<<<<<<<<<<<<<<<<<,,,@@OOOOOOOOooooooooooooooooooooXX..11<<<<<<<<<<<<<<<<<<<<<<<<<,,,@@",
"OOOOOOOooooooooooooooooooooXXX..11<<<<<<<<<<<<<<<<<<<<<<<<,,,,@@OOOOOOOooooooooooooooooooooXXX..11<<<<<<<<<<<<<<<<<<<<<<<<,,,,@@",
"OOOOOOooooooooooooooooooooXXXX..11<<<<<<<<<<<<<<<<<<<<<<<,,,,,@@OOOOOOooooooooooooooooooooXXXX..11<<<<<<<<<<<<<<<<<<<<<<<,,,,,@@",
"OOOOOooooooooooooooooooooXXXXX..11<<<<<<<<<<<<<<<<<<<<<<,,,,,,@@OOOOOooooooooooooooooooooXXXXX..11<<<<<<<<<<<<<<<<<<<<<<,,,,,,@@",
"OOOOooooooooooooooooooooXXXXXX..11<<<<<<<<<<<<<<<<<<<<<,,,,,,,@@OOOOooooooooooooooooooooXXXXXX..11<<<<<<<<<<<<<<<<<<<<<,,,,,,,@@",
"OOOooooooooooooooooooooXXXXXXX..11<<<<<<<<<<<<<<<<<<<<,,,,,,,,@@OOOooooooooooooooooooooXXXXXXX..11<<<<<<<<<<<<<<<<<<<<,,,,,,,,@@",
"OOooooooooooooooooooooXXXXXXXX..11<<<<<<<<<<<<<<<<<<<,,,,,,,,,@@OOooooooooooooooooooooXXXXXXXX..11<<<<<<<<<<<<<<<<<<<,,,,,,,,,@@",
"OOoooooooooooooooooooXXXXXXXXX..11<<<<<<<<<<<<<<<<<<,,,,,,,,,,@@OOoooooooooooooooooooXXXXXXXXX..11<<<<<<<<<<<<<<<<<<,,,,,,,,,,@@",
"OOooooooooooooooooooXXXXXXXXXX..11<<<<<<<<<<<<<<<<<,,,,,,,,,,,@@OOooooooooooooooooooXXXXXXXXXX..11<<<<<<<<<<<<<<<<<,,,,,,,,,,,@@",
"OOoooooooooooooooooXXXXXXXXXXX..11<<<<<<<<<<<<<<<<,,,,,,,,,,,,@@OOoooooooooooooooooXXXXXXXXXXX..11<<<<<<<<<<<<<<<<,,,,,,,,,,,,@@",
"OOooooooooooooooooXXXXXXXXXXXX..11<<<<<<<<<<<<<<<,,,,,,,,,,,,&@@OOooooooooooooooooXXXXXXXXXXXX..11<<<<<<<<<<<<<<<,,,,,,,,,,,,&@@",
"OOoooooooooooooooXXXXXXXXXXXX ..11<<<<<<<<<<<<<<,,,,,,,,,,,,*&@@OOoooooooooooooooXXXXXXXXXXXX ..11<<<<<<<<<<<<<<,,,,,,,,,,,,*&@@",
"OOooooooooooooooXXXXXXXXXXXXX ..11<<<<<<<<<<<<<,,,,,,,,,,,,**&@@OOooooooooooooooXXXXXXXXXXXXX ..11<<<<<<<<<<<<<,,,,,,,,,,,,**&@@",
"OOoooooooooooooXXXXXXXXXXXXXX ..11<<<<<<<<<<<<,,,,,,,,,,,,***&@@OOoooooooooooooXXXXXXXXXXXXXX ..11<<<<<<<<<<<<,,,,,,,,,,,,***&@@",
"OOooooooooooooXXXXXXXXXXXXXXX ..11<<<<<<<<<<<,,,,,,,,,,,,****&@@OOooooooooooooXXXXXXXXXXXXXXX ..11<<<<<<<<<<<,,,,,,,,,,,,****&@@",
"OOoooooooooooXXXXXXXXXXXXXXXX ..11<<<<<<<<<<,,,,,,,,,,,,*****&@@OOoooooooooooXXXXXXXXXXXXXXXX ..11<<<<<<<<<<,,,,,,,,,,,,*****&@@",
"OOooooooooooXXXXXXXXXXXXXXXXX ..11<<<<<<<<<,,,,,,,,,,,,******&@@OOooooooooooXXXXXXXXXXXXXXXXX ..11<<<<<<<<<,,,,,,,,,,,,******&@@",
"OOoooooooooXXXXXXXXXXXXXXXXXX ..11<<<<<<<<,,,,,,,,,,,,*******&@@OOoooooooooXXXXXXXXXXXXXXXXXX ..11<<<<<<<<,,,,,,,,,,,,*******&@@",
"OOooooooooXXXXXXXXXXXXXXXXXXX ..11<<<<<<<,,,,,,,,,,,,********&@@OOooooooooXXXXXXXXXXXXXXXXXXX ..11<<<<<<<,,,,,,,,,,,,********&@@",
"OOoooooooXXXXXXXXXXXXXXXXXXXX ..11<<<<<<,,,,,,,,,,,,********&&@@OOoooooooXXXXXXXXXXXXXXXXXXXX ..11<<<<<<,,,,,,,,,,,,********&&@@",
"OOooooooXXXXXXXXXXXXXXXXXXXX  ..11<<<<<,,,,,,,,,,,,********&&&@@OOooooooXXXXXXXXXXXXXXXXXXXX  ..11<<<<<,,,,,,,,,,,,********&&&@@",
"OOoooooXXXXXXXXXXXXXXXXXXXX   ..11<<<<,,,,,,,,,,,,********&&&&@@OOoooooXXXXXXXXXXXXXXXXXXXX   ..11<<<<,,,,,,,,,,,,********&&&&@@",
"OOooooXXXXXXXXXXXXXXXXXXXX    ..11<<<,,,,,,,,,,,,********&&&&&@@OOooooXXXXXXXXXXXXXXXXXXXX    ..11<<<,,,,,,,,,,,,********&&&&&@@",
"OOoooXXXXXXXXXXXXXXXXXXXX     ..11<<,,,,,,,,,,,,********&&&&&&@@OOoooXXXXXXXXXXXXXXXXXXXX     ..11<<,,,,,,,,,,,,********&&&&&&@@",
"XXooXXXXXXXXXXXXXXXXXXXX      ..$$<,,,,,,,,,,,,********&&&&&&&@@XXooXXXXXXXXXXXXXXXXXXXX      ..$$<,,,,,,,,,,,,********&&&&&&&@@",
"XXXXXXXXXXXXXXX               ..$$$,,,,,,,,,,,&&&&&&&&&&&&&&&&@@XXXXXXXXXXXXXXX               ..$$$,,,,,,,,,,,&&&&&&&&&&&&&&&&@@",
"XXXX............................$$$$@@@@@@@@@@@@@@@@@@@@@@@@@@@@XXXX............................$$$$@@@@@@@@@@@@@@@@@@@@@@@@@@@@",
"XXXX............................$$$$@@@@@@@@@@@@@@@@@@@@@@@@@@@@XXXX............................$$$$@@@@@@@@@@@@@@@@@@@@@@@@@@@@",
"1111111111111111111111111111$$$$OOOOOOOOOOOOOOOOOOOOOOOOOOOOXXXX1111111111111111111111111111$$$$OOOOOOOOOOOOOOOOOOOOOOOOOOOOXXXX",
"1111111111111111111111111111$$$$OOOOOOOOOOOOOOOOOOOOOOOOOOOOXXXX1111111111111111111111111111$$$$OOOOOOOOOOOOOOOOOOOOOOOOOOOOXXXX",
"11<<<<<<<<<<<<<<<<<<<<<<<<<<<$$$OOOOOOOOOOooooooooo%%%oooooooXXX11<<<<<<<<<<<<<<<<<<<<<<<<<<<$$$OOOOOOOOOOooooooooo%%%oooooooXXX",
"11<<<<<<<<<<<<<<<<<<<<<<<<<<,,$2OOOOOOOOOooooooooo%%%%%ooooooXXX11<<<<<<<<<<<<<<<<<<<<<<<<<<,,$2OOOOOOOOOooooooooo%%%%%ooooooXXX",
"11<<66<<<<<<<<<<<<<<<<<<<<<,,,11OOOOOOOOooooooooo%%%%%%%ooooXX..11<<66<<<<<<<<<<<<<<<<<<<<<,,,11OOOOOOOOooooooooo%%%%%%%ooooXX..",
"11<666<<<<<<<<<<<<<<<<<<<<,,,511=OOOOOOooooooooo%%%%%%%%oooXXX..11<666<<<<<<<<<<<<<<<<<<<<,,,511=OOOOOOooooooooo%%%%%%%%oooXXX..",
"11<666<<<<<<<<<<<<<<<<<<<,,,5511=OOOOOooooooooo%%%%%%%%%ooXXXX..11<666<<<<<<<<<<<<<<<<<<<,,,5511=OOOOOooooooooo%%%%%%%%%ooXXXX..",
"1166666<<<<<<<6<<<<<<<<<,,,55511==OOOooooooooo%%%%%%%%%%oXXXXX..1166666<<<<<<<6<<<<<<<<<,,,55511==OOOooooooooo%%%%%%%%%%oXXXXX..",
"1q66666<<<<<<66<<<<<<<<,,5555511==OOooooooooo%%%%%%%%%%%$XXXXX..1q66666<<<<<<66<<<<<<<<,,5555511==OOooooooooo%%%%%%%%%%%$XXXXX..",
"1q66666<<<<<<66<<<<<<<,,55555511===ooooooooo%%%%%%%%%%%$$XXXXX..1q66666<<<<<<66<<<<<<<,,55555511===ooooooooo%%%%%%%%%%%$$XXXXX..",
"qq666666<<<<6666<<<<<,,,55555511==%oooooooo%%%%%%%%%%%$$$XXXXX..qq666666<<<<6666<<<<<,,,55555511==%oooooooo%%%%%%%%%%%$$$XXXXX..",
"qq666666<<<<66666<<<,,,,55555511==%%oooooo%%%%%%%%%%%$$$$$XXXX..qq666666<<<<66666<<<,,,,55555511==%%oooooo%%%%%%%%%%%$$$$$XXXX..",
"qq666666<<<<666666<,,,,,55555511==%%ooooo%%%%%%%%%%%$$$$$$XXXX.Oqq666666<<<<666666<,,,,,55555511==%%ooooo%%%%%%%%%%%$$$$$$XXXX.O",
"qq6666666<<<6666665,,,,555555511==%%%ooo%%%%%%%%%%%$$$$$$$$XXX.Oqq6666666<<<6666665,,,,555555511==%%%ooo%%%%%%%%%%%$$$$$$$$XXX.O",
"qq6666666<<<66666555,,5555555311==%%%oo%%%%%%%%%%%$$$$$$$$$XXXOOqq6666666<<<66666555,,5555555311==%%%oo%%%%%%%%%%%$$$$$$$$$XXXOO",
"qq666666666666665555555555554311==%%%%%%%%%%%%%%%$$$$$$$$$$$$@OOqq666666666666665555555555554311==%%%%%%%%%%%%%%%$$$$$$$$$$$$@OO",
"qq666666666666655555555555544311==%%%%%%%%%%%%%%$$$$$$$$$$$$#@OOqq666666666666655555555555544311==%%%%%%%%%%%%%%$$$$$$$$$$$$#@OO",
"qq666666666666555555555555444311==%%%%%%%%%%%%%$$$$$$$$$$$$##@OOqq666666666666555555555555444311==%%%%%%%%%%%%%$$$$$$$$$$$$##@OO",
"qq666666666665555555555554444311==%%%%%%%%%%%%$$$$$$$$$$$$###@OOqq666666666665555555555554444311==%%%%%%%%%%%%$$$$$$$$$$$$###@OO",
"qq666666666655555555555544444311==%%%%%%%%%%%$$$$$$$$$$$$####@OOqq666666666655555555555544444311==%%%%%%%%%%%$$$$$$$$$$$$####@OO",
"qq666666666555555555555444444311==%%%%%%%%%%$$$$$$$$$$$$#####@OOqq666666666555555555555444444311==%%%%%%%%%%$$$$$$$$$$$$#####@OO",
"qq666666665555555555554444444311==%%%%%%%%%$$$$$$$$$$$$######@OOqq666666665555555555554444444311==%%%%%%%%%$$$$$$$$$$$$######@OO",
"qq666666655555555555544444444311==%%%%%%%%$$$$$$$$$$$$#######@OOqq666666655555555555544444444311==%%%%%%%%$$$$$$$$$$$$#######@OO",
"qq666666555555555555444444443311==%%%%%%%$$$$$$$$$$$$########@OOqq666666555555555555444444443311==%%%%%%%$$$$$$$$$$$$########@OO",
"qq666665555555555554444444433311==%%%%%%$$$$$$$$$$$$########@@OOqq666665555555555554444444433311==%%%%%%$$$$$$$$$$$$########@@OO",
"qq666655555555555544444444333311==%%%%%$$$$$$$$$$$$########@@@OOqq666655555555555544444444333311==%%%%%$$$$$$$$$$$$########@@@OO",
"qq666555555555555444444443333311==%%%%$$$$$$$$$$$$########@@@@OOqq666555555555555444444443333311==%%%%$$$$$$$$$$$$########@@@@OO",
"qq665555555555554444444433333311==%%%$$$$$$$$$$$$########@@@@@OOqq665555555555554444444433333311==%%%$$$$$$$$$$$$########@@@@@OO",
"22655555555555544444444333333311##%%$$$$$$$$$$$$########@@@@@@OO22655555555555544444444333333311##%%$$$$$$$$$$$$########@@@@@@OO",
"22255555555555333333333333333311####$$$$$$$$$$$@@@@@@@@@@@@@@@OO22255555555555333333333333333311####$$$$$$$$$$$@@@@@@@@@@@@@@@OO",
"22221111111111111111111111111111####OOOOOOOOOOOOOOOOOOOOOOOOOOOO22221111111111111111111111111111####OOOOOOOOOOOOOOOOOOOOOOOOOOOO",
"22221111111111111111111111111111####OOOOOOOOOOOOOOOOOOOOOOOOOOOO22221111111111111111111111111111####OOOOOOOOOOOOOOOOOOOOOOOOOOOO"
};
