/* XPM */
static char *f964a973a83e483f83ddb1210ec479cb66iO3Q18nX8zKtqq[] = {
/* columns rows colors chars-per-pixel */
"128 128 28 1 ",
"  c #070707",
". c #0F0F00",
"X c #00000F",
"o c #3F0000",
"O c #17300F",
"+ c #2B230F",
"@ c #4F0000",
"# c #550000",
"$ c #5D0500",
"% c #6D1200",
"& c #732B00",
"* c #1E4014",
"= c #265019",
"- c #2D601E",
"; c #357023",
": c #862700",
"> c #8E2E00",
", c #A43D00",
"< c #B14500",
"1 c #CB5500",
"2 c #D85D00",
"3 c #E56500",
"4 c #F36D00",
"5 c #3C8028",
"6 c #43902D",
"7 c #52B037",
"8 c #5AC03C",
"9 c #FF8619",
/* pixels */
"77778888778877777777888877887777777788887788777777778888778877777777888877887777777788887788777777778888778877777777888877887777",
"77778888778877777777888877887777777788887788777777778888778877777777888877887777777788887788777777778888778877777777888877887777",
"77778888778877777777888877887777777788887788777777778888778877777777888877887777777788887788777777778888778877777777888877887777",
"77778888778877777777888877887777777788887788777777778888778877777777888877887777777788887788777777778888778877777777888877887777",
"66668888888866666666888877886666666688888888666666668888778866666666888888886666666688887788666666668888888866666666888877886666",
"66668888888866666666888877886666666688888888666666668888778866666666888888886666666688887788666666668888888866666666888877886666",
"66668888888866666666888888886666666688888888666666668888888866666666888888886666666688888888666666668888888866666666888888886666",
"66668888888866666666888888886666666688888888666666668888888866666666888888886666666688888888666666668888888866666666888888886666",
"666688888888666666668888888866**666688888888666666668888888866**666688888888666666668888888866**666688888888666666668888888866**",
"666688888888666666668888888866**666688888888666666668888888866**666688888888666666668888888866**666688888888666666668888888866**",
"555555888855**5555558888888855**555555888855**5555558888888855**555555888855**5555558888888855**555555888855**5555558888888855**",
"555555888855**5555558888888855**555555888855**5555558888888855**555555888855**5555558888888855**555555888855**5555558888888855**",
"**5555888855**55**555588888855****5555888855**55**555588888855****5555888855**55**555588888855****5555888855**55**555588888855**",
"**5555888855**55**555588888855****5555888855**55**555588888855****5555888855**55**555588888855****5555888855**55**555588888855**",
"**5555558855**55**5555888855******5555558855**55**5555888855******5555558855**55**5555888855******5555558855**55**5555888855****",
"**5555558855**55**5555888855******5555558855**55**5555888855******5555558855**55**5555888855******5555558855**55**5555888855****",
"**;;;;;;;;;;******;;;;;;88;;******;;;;;;;;;;******;;;;;;88;;******;;;;;;;;;;******;;;;;;88;;******;;;;;;;;;;******;;;;;;88;;****",
"**;;;;;;;;;;******;;;;;;88;;******;;;;;;;;;;******;;;;;;88;;******;;;;;;;;;;******;;;;;;88;;******;;;;;;;;;;******;;;;;;88;;****",
"OOOO--------OOOOOOOO--------OOOOOOOO--------OOOOOOOO--------OOOOOOOO--------OOOOOOOO--------OOOOOOOO--------OOOOOOOO--------OOOO",
"OOOO--------OOOOOOOO--------OOOOOOOO--------OOOOOOOO--------OOOOOOOO--------OOOOOOOO--------OOOOOOOO--------OOOOOOOO--------OOOO",
"OOOO--------OOOOOOOO--------OOOOOOOO--------OOOOOOOO--------OOOOOOOO--------OOOOOOOO--------OOOOOOOO--------OOOOOOOO--------OOOO",
"OOOO--------OOOOOOOO--------OOOOOOOO--------OOOOOOOO--------OOOOOOOO--------OOOOOOOO--------OOOOOOOO--------OOOOOOOO--------OOOO",
"OOOO--------OOOOOOOO--------OOOOOOOO--------OOOOOOOO--------OOOOOOOO--------OOOOOOOO--------OOOOOOOO--------OOOOOOOO--------OOOO",
"OOOO--------OOOOOOOO--------OOOOOOOO--------OOOOOOOO--------OOOOOOOO--------OOOOOOOO--------OOOOOOOO--------OOOOOOOO--------OOOO",
"OOOO--------OOOOOOOO--------OOOOOOOO--------OOOOOOOO--------OOOOOOOO--------OOOOOOOO--------OOOOOOOO--------OOOOOOOO--------OOOO",
"OOOO--------OOOOOOOO--------OOOOOOOO--------OOOOOOOO--------OOOOOOOO--------OOOOOOOO--------OOOOOOOO--------OOOOOOOO--------OOOO",
"OO>>==>>====OO@@OOOO========OOOOOO>>==>>====OO@@OOOO========OOOOOO>>==>>====OO@@OOOO========OOOOOO>>==>>====OO@@OOOO========OOOO",
"OO>>==>>====OO@@OOOO========OOOOOO>>==>>====OO@@OOOO========OOOOOO>>==>>====OO@@OOOO========OOOOOO>>==>>====OO@@OOOO========OOOO",
"OO>>==>>====OO@@..OO==XX==XXOOOOOO>>==>>====OO@@..OO==XX==XXOOOOOO>>==>>====OO@@..OO==XX==XXOOOOOO>>==>>====OO@@..OO==XX==XXOOOO",
"OO>>==>>====OO@@..OO==XX==XXOOOOOO>>==>>====OO@@..OO==XX==XXOOOOOO>>==>>====OO@@..OO==XX==XXOOOOOO>>==>>====OO@@..OO==XX==XXOOOO",
",,>>>>>>::==OO@@..OOXXXX==XXOOOO,,>>>>>>::==OO@@..OOXXXX==XXOOOO,,>>>>>>::==OO@@..OOXXXX==XXOOOO,,>>>>>>::==OO@@..OOXXXX==XXOOOO",
",,>>>>>>::==OO@@..OOXXXX==XXOOOO,,>>>>>>::==OO@@..OOXXXX==XXOOOO,,>>>>>>::==OO@@..OOXXXX==XXOOOO,,>>>>>>::==OO@@..OOXXXX==XXOOOO",
",,>>>>::::::::@@..XXXXXXXXXXXXXX,,>>>>::::::::@@..XXXXXXXXXXXXXX,,>>>>::::::::@@..XXXXXXXXXXXXXX,,>>>>::::::::@@..XXXXXXXXXXXXXX",
",,>>>>::::::::@@..XXXXXXXXXXXXXX,,>>>>::::::::@@..XXXXXXXXXXXXXX,,>>>>::::::::@@..XXXXXXXXXXXXXX,,>>>>::::::::@@..XXXXXXXXXXXXXX",
",,::::::::::::@@..XXXXXXXXXXXXXX,,::::::::::::@@..XXXXXXXXXXXXXX,,::::::::::::@@..XXXXXXXXXXXXXX,,::::::::::::@@..XXXXXXXXXXXXXX",
",,::::::::::::@@..XXXXXXXXXXXXXX,,::::::::::::@@..XXXXXXXXXXXXXX,,::::::::::::@@..XXXXXXXXXXXXXX,,::::::::::::@@..XXXXXXXXXXXXXX",
",,::::::::::%%@@..XXXXXXXXXXXXXX,,::::::::::%%@@..XXXXXXXXXXXXXX,,::::::::::%%@@..XXXXXXXXXXXXXX,,::::::::::%%@@..XXXXXXXXXXXXXX",
",,::::::::::%%@@..XXXXXXXXXXXXXX,,::::::::::%%@@..XXXXXXXXXXXXXX,,::::::::::%%@@..XXXXXXXXXXXXXX,,::::::::::%%@@..XXXXXXXXXXXXXX",
"$$@@@@@@@@@@@@@@XXXXXXXXXXXXXXXX$$@@@@@@@@@@@@@@XXXXXXXXXXXXXXXX$$@@@@@@@@@@@@@@XXXXXXXXXXXXXXXX$$@@@@@@@@@@@@@@XXXXXXXXXXXXXXXX",
"$$@@@@@@@@@@@@@@XXXXXXXXXXXXXXXX$$@@@@@@@@@@@@@@XXXXXXXXXXXXXXXX$$@@@@@@@@@@@@@@XXXXXXXXXXXXXXXX$$@@@@@@@@@@@@@@XXXXXXXXXXXXXXXX",
"..............XX,,,,,,,,,,,,,,$$..............XX,,,,,,,,,,,,,,$$..............XX,,,,,,,,,,,,,,$$..............XX,,,,,,,,,,,,,,$$",
"..............XX,,,,,,,,,,,,,,$$..............XX,,,,,,,,,,,,,,$$..............XX,,,,,,,,,,,,,,$$..............XX,,,,,,,,,,,,,,$$",
"..      XXXXXXXX,,>>>>>>>>::::@@..      XXXXXXXX,,>>>>>>>>::::@@..      XXXXXXXX,,>>>>>>>>::::@@..      XXXXXXXX,,>>>>>>>>::::@@",
"..      XXXXXXXX,,>>>>>>>>::::@@..      XXXXXXXX,,>>>>>>>>::::@@..      XXXXXXXX,,>>>>>>>>::::@@..      XXXXXXXX,,>>>>>>>>::::@@",
"..    XXXXXXXXXX,,>>>>>>>>::::@@..    XXXXXXXXXX,,>>>>>>>>::::@@..    XXXXXXXXXX,,>>>>>>>>::::@@..    XXXXXXXXXX,,>>>>>>>>::::@@",
"..    XXXXXXXXXX,,>>>>>>>>::::@@..    XXXXXXXXXX,,>>>>>>>>::::@@..    XXXXXXXXXX,,>>>>>>>>::::@@..    XXXXXXXXXX,,>>>>>>>>::::@@",
"..  XXXXXXXXXXXX,,>>>>>>::::::@@..  XXXXXXXXXXXX,,>>>>>>::::::@@..  XXXXXXXXXXXX,,>>>>>>::::::@@..  XXXXXXXXXXXX,,>>>>>>::::::@@",
"..  XXXXXXXXXXXX,,>>>>>>::::::@@..  XXXXXXXXXXXX,,>>>>>>::::::@@..  XXXXXXXXXXXX,,>>>>>>::::::@@..  XXXXXXXXXXXX,,>>>>>>::::::@@",
"..XXXXXXXXXXXXXX,,>>>>::::::::@@..XXXXXXXXXXXXXX,,>>>>::::::::@@..XXXXXXXXXXXXXX,,>>>>::::::::@@..XXXXXXXXXXXXXX,,>>>>::::::::@@",
"..XXXXXXXXXXXXXX,,>>>>::::::::@@..XXXXXXXXXXXXXX,,>>>>::::::::@@..XXXXXXXXXXXXXX,,>>>>::::::::@@..XXXXXXXXXXXXXX,,>>>>::::::::@@",
"..XXXXXXXXXXXXXX,,::::::::::::@@..XXXXXXXXXXXXXX,,::::::::::::@@..XXXXXXXXXXXXXX,,::::::::::::@@..XXXXXXXXXXXXXX,,::::::::::::@@",
"..XXXXXXXXXXXXXX,,::::::::::::@@..XXXXXXXXXXXXXX,,::::::::::::@@..XXXXXXXXXXXXXX,,::::::::::::@@..XXXXXXXXXXXXXX,,::::::::::::@@",
"..XXXXXXXXXXXXXX,,::::::::::%%@@..XXXXXXXXXXXXXX,,::::::::::%%@@..XXXXXXXXXXXXXX,,::::::::::%%@@..XXXXXXXXXXXXXX,,::::::::::%%@@",
"..XXXXXXXXXXXXXX,,::::::::::%%@@..XXXXXXXXXXXXXX,,::::::::::%%@@..XXXXXXXXXXXXXX,,::::::::::%%@@..XXXXXXXXXXXXXX,,::::::::::%%@@",
"XXXXXXXXXXXXXXXX$$@@@@@@@@@@@@@@XXXXXXXXXXXXXXXX$$@@@@@@@@@@@@@@XXXXXXXXXXXXXXXX$$@@@@@@@@@@@@@@XXXXXXXXXXXXXXXX$$@@@@@@@@@@@@@@",
"XXXXXXXXXXXXXXXX$$@@@@@@@@@@@@@@XXXXXXXXXXXXXXXX$$@@@@@@@@@@@@@@XXXXXXXXXXXXXXXX$$@@@@@@@@@@@@@@XXXXXXXXXXXXXXXX$$@@@@@@@@@@@@@@",
",,,,,,,,,,,,,,$$..........&&..XX,,,,,,,,,,,,,,$$..........&&..XX,,,,,,,,,,,,,,$$..........&&..XX,,,,,,,,,,,,,,$$..........&&..XX",
",,,,,,,,,,,,,,$$..........&&..XX,,,,,,,,,,,,,,$$..........&&..XX,,,,,,,,,,,,,,$$..........&&..XX,,,,,,,,,,,,,,$$..........&&..XX",
",,11>>>>>>::::11..XXXXXX####XXXX,,11>>>>>>::::11..XXXXXX####XXXX,,11>>>>>>::::11..XXXXXX####XXXX,,11>>>>>>::::11..XXXXXX####XXXX",
",,11>>>>>>::::11..XXXXXX####XXXX,,11>>>>>>::::11..XXXXXX####XXXX,,11>>>>>>::::11..XXXXXX####XXXX,,11>>>>>>::::11..XXXXXX####XXXX",
",,11>>11>>::1111&&XXXX######XXXX,,11>>11>>::1111&&XXXX######XXXX,,11>>11>>::1111&&XXXX######XXXX,,11>>11>>::1111&&XXXX######XXXX",
",,11>>11>>::1111&&XXXX######XXXX,,11>>11>>::1111&&XXXX######XXXX,,11>>11>>::1111&&XXXX######XXXX,,11>>11>>::1111&&XXXX######XXXX",
"1111>>1111::1111&&XX##########XX1111>>1111::1111&&XX##########XX1111>>1111::1111&&XX##########XX1111>>1111::1111&&XX##########XX",
"1111>>1111::1111&&XX##########XX1111>>1111::1111&&XX##########XX1111>>1111::1111&&XX##########XX1111>>1111::1111&&XX##########XX",
"99444433333322,,&&############oo99444433333322,,&&############oo99444433333322,,&&############oo99444433333322,,&&############oo",
"99444433333322,,&&############oo99444433333322,,&&############oo99444433333322,,&&############oo99444433333322,,&&############oo",
"99333333332222,,&&############oo99333333332222,,&&############oo99333333332222,,&&############oo99333333332222,,&&############oo",
"99333333332222,,&&############oo99333333332222,,&&############oo99333333332222,,&&############oo99333333332222,,&&############oo",
"99333322222211,,&&##########++oo99333322222211,,&&##########++oo99333322222211,,&&##########++oo99333322222211,,&&##########++oo",
"99333322222211,,&&##########++oo99333322222211,,&&##########++oo99333322222211,,&&##########++oo99333322222211,,&&##########++oo",
"<<,,,,,,,,,,,,,,##oooooooooooooo<<,,,,,,,,,,,,,,##oooooooooooooo<<,,,,,,,,,,,,,,##oooooooooooooo<<,,,,,,,,,,,,,,##oooooooooooooo",
"<<,,,,,,,,,,,,,,##oooooooooooooo<<,,,,,,,,,,,,,,##oooooooooooooo<<,,,,,,,,,,,,,,##oooooooooooooo<<,,,,,,,,,,,,,,##oooooooooooooo",
"&&&&&&&&&&&&&&##99999999999999<<&&&&&&&&&&&&&&##99999999999999<<&&&&&&&&&&&&&&##99999999999999<<&&&&&&&&&&&&&&##99999999999999<<",
"&&&&&&&&&&&&&&##99999999999999<<&&&&&&&&&&&&&&##99999999999999<<&&&&&&&&&&&&&&##99999999999999<<&&&&&&&&&&&&&&##99999999999999<<",
"&&&&&&&&######oo99444444443333,,&&&&&&&&######oo99444444443333,,&&&&&&&&######oo99444444443333,,&&&&&&&&######oo99444444443333,,",
"&&&&&&&&######oo99444444443333,,&&&&&&&&######oo99444444443333,,&&&&&&&&######oo99444444443333,,&&&&&&&&######oo99444444443333,,",
"&&&&&&########oo99444444443333,,&&&&&&########oo99444444443333,,&&&&&&########oo99444444443333,,&&&&&&########oo99444444443333,,",
"&&&&&&########oo99444444443333,,&&&&&&########oo99444444443333,,&&&&&&########oo99444444443333,,&&&&&&########oo99444444443333,,",
"&&&&##########oo99444444333322,,&&&&##########oo99444444333322,,&&&&##########oo99444444333322,,&&&&##########oo99444444333322,,",
"&&&&##########oo99444444333322,,&&&&##########oo99444444333322,,&&&&##########oo99444444333322,,&&&&##########oo99444444333322,,",
"&&############oo99444433333322,,&&############oo99444433333322,,&&############oo99444433333322,,&&############oo99444433333322,,",
"&&############oo99444433333322,,&&############oo99444433333322,,&&############oo99444433333322,,&&############oo99444433333322,,",
"&&############oo99333333332222,,&&############oo99333333332222,,&&############oo99333333332222,,&&############oo99333333332222,,",
"&&############oo99333333332222,,&&############oo99333333332222,,&&############oo99333333332222,,&&############oo99333333332222,,",
"&&##########++oo99333322222211,,&&##########++oo99333322222211,,&&##########++oo99333322222211,,&&##########++oo99333322222211,,",
"&&##########++oo99333322222211,,&&##########++oo99333322222211,,&&##########++oo99333322222211,,&&##########++oo99333322222211,,",
"##oooooooooooooo<<,,,,,,,,,,,,,,##oooooooooooooo<<,,,,,,,,,,,,,,##oooooooooooooo<<,,,,,,,,,,,,,,##oooooooooooooo<<,,,,,,,,,,,,,,",
"##oooooooooooooo<<,,,,,,,,,,,,,,##oooooooooooooo<<,,,,,,,,,,,,,,##oooooooooooooo<<,,,,,,,,,,,,,,##oooooooooooooo<<,,,,,,,,,,,,,,",
"99999999999999<<&&&&&&&&&&&&&&##99999999999999<<&&&&&&&&&&&&&&##99999999999999<<&&&&&&&&&&&&&&##99999999999999<<&&&&&&&&&&&&&&##",
"99999999999999<<&&&&&&&&&&&&&&##99999999999999<<&&&&&&&&&&&&&&##99999999999999<<&&&&&&&&&&&&&&##99999999999999<<&&&&&&&&&&&&&&##",
"99444444443333,,&&&&&&&&######oo99444444443333,,&&&&&&&&######oo99444444443333,,&&&&&&&&######oo99444444443333,,&&&&&&&&######oo",
"99444444443333,,&&&&&&&&######oo99444444443333,,&&&&&&&&######oo99444444443333,,&&&&&&&&######oo99444444443333,,&&&&&&&&######oo",
"99444444443333,,&&&&&&########oo99444444443333,,&&&&&&########oo99444444443333,,&&&&&&########oo99444444443333,,&&&&&&########oo",
"99444444443333,,&&&&&&########oo99444444443333,,&&&&&&########oo99444444443333,,&&&&&&########oo99444444443333,,&&&&&&########oo",
"99444444333322,,&&&&##########oo99444444333322,,&&&&##########oo99444444333322,,&&&&##########oo99444444333322,,&&&&##########oo",
"99444444333322,,&&&&##########oo99444444333322,,&&&&##########oo99444444333322,,&&&&##########oo99444444333322,,&&&&##########oo",
"99444433333322,,&&############oo99444433333322,,&&############oo99444433333322,,&&############oo99444433333322,,&&############oo",
"99444433333322,,&&############oo99444433333322,,&&############oo99444433333322,,&&############oo99444433333322,,&&############oo",
"99333333332222,,&&############oo99333333332222,,&&############oo99333333332222,,&&############oo99333333332222,,&&############oo",
"99333333332222,,&&############oo99333333332222,,&&############oo99333333332222,,&&############oo99333333332222,,&&############oo",
"99333322222211,,&&##########++oo99333322222211,,&&##########++oo99333322222211,,&&##########++oo99333322222211,,&&##########++oo",
"99333322222211,,&&##########++oo99333322222211,,&&##########++oo99333322222211,,&&##########++oo99333322222211,,&&##########++oo",
"<<,,,,,,,,,,,,,,##oooooooooooooo<<,,,,,,,,,,,,,,##oooooooooooooo<<,,,,,,,,,,,,,,##oooooooooooooo<<,,,,,,,,,,,,,,##oooooooooooooo",
"<<,,,,,,,,,,,,,,##oooooooooooooo<<,,,,,,,,,,,,,,##oooooooooooooo<<,,,,,,,,,,,,,,##oooooooooooooo<<,,,,,,,,,,,,,,##oooooooooooooo",
"&&&&&&&&&&&&&&##99999999999999<<&&&&&&&&&&&&&&##99999999999999<<&&&&&&&&&&&&&&##99999999999999<<&&&&&&&&&&&&&&##99999999999999<<",
"&&&&&&&&&&&&&&##99999999999999<<&&&&&&&&&&&&&&##99999999999999<<&&&&&&&&&&&&&&##99999999999999<<&&&&&&&&&&&&&&##99999999999999<<",
"&&&&&&&&######oo99444444443333,,&&&&&&&&######oo99444444443333,,&&&&&&&&######oo99444444443333,,&&&&&&&&######oo99444444443333,,",
"&&&&&&&&######oo99444444443333,,&&&&&&&&######oo99444444443333,,&&&&&&&&######oo99444444443333,,&&&&&&&&######oo99444444443333,,",
"&&&&&&########oo99444444443333,,&&&&&&########oo99444444443333,,&&&&&&########oo99444444443333,,&&&&&&########oo99444444443333,,",
"&&&&&&########oo99444444443333,,&&&&&&########oo99444444443333,,&&&&&&########oo99444444443333,,&&&&&&########oo99444444443333,,",
"&&&&##########oo99444444333322,,&&&&##########oo99444444333322,,&&&&##########oo99444444333322,,&&&&##########oo99444444333322,,",
"&&&&##########oo99444444333322,,&&&&##########oo99444444333322,,&&&&##########oo99444444333322,,&&&&##########oo99444444333322,,",
"&&############oo99444433333322,,&&############oo99444433333322,,&&############oo99444433333322,,&&############oo99444433333322,,",
"&&############oo99444433333322,,&&############oo99444433333322,,&&############oo99444433333322,,&&############oo99444433333322,,",
"&&############oo99333333332222,,&&############oo99333333332222,,&&############oo99333333332222,,&&############oo99333333332222,,",
"&&############oo99333333332222,,&&############oo99333333332222,,&&############oo99333333332222,,&&############oo99333333332222,,",
"&&##########++oo99333322222211,,&&##########++oo99333322222211,,&&##########++oo99333322222211,,&&##########++oo99333322222211,,",
"&&##########++oo99333322222211,,&&##########++oo99333322222211,,&&##########++oo99333322222211,,&&##########++oo99333322222211,,",
"##oooooooooooooo<<,,,,,,,,,,,,,,##oooooooooooooo<<,,,,,,,,,,,,,,##oooooooooooooo<<,,,,,,,,,,,,,,##oooooooooooooo<<,,,,,,,,,,,,,,",
"##oooooooooooooo<<,,,,,,,,,,,,,,##oooooooooooooo<<,,,,,,,,,,,,,,##oooooooooooooo<<,,,,,,,,,,,,,,##oooooooooooooo<<,,,,,,,,,,,,,,",
"99999999999999<<&&&&&&&&&&&&&&##99999999999999<<&&&&&&&&&&&&&&##99999999999999<<&&&&&&&&&&&&&&##99999999999999<<&&&&&&&&&&&&&&##",
"99999999999999<<&&&&&&&&&&&&&&##99999999999999<<&&&&&&&&&&&&&&##99999999999999<<&&&&&&&&&&&&&&##99999999999999<<&&&&&&&&&&&&&&##",
"99444444443333,,&&&&&&&&######oo99444444443333,,&&&&&&&&######oo99444444443333,,&&&&&&&&######oo99444444443333,,&&&&&&&&######oo",
"99444444443333,,&&&&&&&&######oo99444444443333,,&&&&&&&&######oo99444444443333,,&&&&&&&&######oo99444444443333,,&&&&&&&&######oo",
"99444444443333,,&&&&&&########oo99444444443333,,&&&&&&########oo99444444443333,,&&&&&&########oo99444444443333,,&&&&&&########oo",
"99444444443333,,&&&&&&########oo99444444443333,,&&&&&&########oo99444444443333,,&&&&&&########oo99444444443333,,&&&&&&########oo",
"99444444333322,,&&&&##########oo99444444333322,,&&&&##########oo99444444333322,,&&&&##########oo99444444333322,,&&&&##########oo",
"99444444333322,,&&&&##########oo99444444333322,,&&&&##########oo99444444333322,,&&&&##########oo99444444333322,,&&&&##########oo"
};
